<?xml version="1.0" encoding="utf-8"?>
<!-- Generator: Adobe Illustrator 22.0.0, SVG Export Plug-In . SVG Version: 6.00 Build 0)  -->
<svg version="1.1"
	 id="svg1997" inkscape:version="0.44.1" sodipodi:docbase="C:\" sodipodi:docname="Mad_scientist_transparent_background.svg" sodipodi:version="0.32" xmlns:cc="http://web.resource.org/cc/" xmlns:dc="http://purl.org/dc/elements/1.1/" xmlns:inkscape="http://www.inkscape.org/namespaces/inkscape" xmlns:rdf="http://www.w3.org/1999/02/22-rdf-syntax-ns#" xmlns:sodipodi="http://sodipodi.sourceforge.net/DTD/sodipodi-0.dtd" xmlns:svg="http://www.w3.org/2000/svg"
	 xmlns="http://www.w3.org/2000/svg" xmlns:xlink="http://www.w3.org/1999/xlink" x="0px" y="0px" viewBox="0 0 684 640"
	 style="enable-background:new 0 0 684 640;" xml:space="preserve">
<style type="text/css">
	.st0{fill:#D6D6D6;}
	.st1{fill:none;stroke:#020202;stroke-width:6;stroke-linejoin:round;}
	.st2{fill:#FAF6E6;stroke:#000000;stroke-width:6;}
	.st3{fill:none;stroke:#000000;stroke-width:2.5;stroke-linecap:round;stroke-linejoin:round;}
	.st4{fill:#050504;}
	.st5{fill:none;stroke:#000000;stroke-width:4;}
	.st6{fill:#353535;}
	.st7{fill:#F6C612;}
	.st8{fill:none;stroke:#EAEAE7;stroke-width:1.2;stroke-linecap:round;}
	.st9{fill:#72CABA;stroke:#000000;stroke-width:6;}
	.st10{fill:#F2D6C6;}
	.st11{fill:#72CABA;}
	.st12{fill:none;stroke:#000000;stroke-width:2.5;stroke-linecap:round;}
	.st13{fill:#FEFEFE;}
	.st14{fill:none;stroke:#000000;stroke-width:2;stroke-linecap:round;}
	.st15{fill:#FEFEFE;stroke:#000000;stroke-width:2.7;}
	.st16{fill:none;stroke:#000000;stroke-width:2.5;}
	.st17{fill:#FEFEFE;stroke:#000000;stroke-width:2.6;}
	.st18{fill:none;stroke:#000000;stroke-width:2.8;stroke-linecap:round;}
	.st19{fill:#E2B28A;}
	.st20{fill:#D6D6D6;stroke:#000000;stroke-width:2.3;stroke-linecap:round;stroke-linejoin:round;}
	.st21{fill:#EBC09F;stroke:#E2B28A;stroke-width:2;stroke-linecap:round;}
	.st22{fill:#F2D6C6;stroke:#000000;stroke-width:3;stroke-linecap:round;}
	.st23{fill:none;stroke:#000000;stroke-width:2.3;stroke-linecap:round;}
	.st24{fill:none;stroke:#A8A8A8;stroke-width:2;stroke-linecap:round;}
	.st25{fill:#6A526E;stroke:#000000;stroke-width:2.3;stroke-linejoin:round;}
	.st26{fill:#6A526E;stroke:#000000;stroke-width:2.3;}
	.st27{fill:none;stroke:#76D2C1;stroke-width:2;}
	.st28{fill:#9696CE;stroke:#000000;stroke-width:2.3;}
	.st29{fill:#C6C2A3;}
	.st30{fill:none;stroke:#020202;stroke-width:6.5;stroke-linejoin:round;}
	.st31{fill:none;stroke:#000000;stroke-width:6;}
	.st32{fill:none;stroke:#000000;stroke-width:8;}
</style>
<sodipodi:namedview  bordercolor="#666666" borderopacity="1.0" gridtolerance="10.0" guidetolerance="10.0" id="base" inkscape:current-layer="svg1997" inkscape:cx="342" inkscape:cy="320" inkscape:pageopacity="0.0" inkscape:pageshadow="2" inkscape:window-height="573" inkscape:window-width="853" inkscape:window-x="154" inkscape:window-y="154" inkscape:zoom="0.590625" objecttolerance="10.0" pagecolor="#ffffff">
	</sodipodi:namedview>
<path id="path24960" class="st0" d="M219.5,196.8c11.9-7.4-43.8-6.3-65.8,12.5c-11.2,9.6,18.8-66.8,42.8-75.1s-49.1,14.6-53.2,19.8
	c-4.2,5.2,36.5-58.4,64.7-62.6c28-4.2-58.4-4.2-58.4-4.2s36.5-38.6,75.1-42.8c38.6-4.2-54.3-8.3-54.3-8.3
	c12.5-12.5,79.3-35.5,120,2.1c0,0,35.7-30.4,60.5-26.1c0,0-25,19.8-27.1,31.3c0,0,56.4-25,77.2-5.2c0,0-13.6,0-23,14.6
	c55.4-10,101.2,15.7,114.8,41.7l-37.6-1c14.6,7.3,50.1,36.5,40.7,62.6l-31.3-17.7c0,0,19.6,42.8,14.6,61.6
	c-1.3,4.9-29.2-18.8-29.2-18.8s9,31.1,2.1,29.2c-3.1-5.2-18.8-14.6-18.8-14.6s7.3,23,1,24c-6.3,1-16.7,0-11.5,6.3
	c1,1.2-11.9,14.8-25.2,14.3c-6.8-0.3,8.3-54.6-0.5-55.6c-25.6-3-84.5,33.2-108.6,37.3C239.6,230.6,208.9,203.4,219.5,196.8z"/>
<path id="path29589" class="st1" d="M195.7,192.1c-14.8,2-32.6,7-42.9,15.8c-11.3,9.7,18.9-67.2,43-75.6c-9.3-1.1-45.2,17.2-57.6,29
	c0.1-14.3,36.8-69.4,76.5-72.8c28.4-2.4-66.1-3.4-66.1-3.4c0-13.1,36.7-38.8,75.6-43c38.8-4.2-54.6-8.4-54.6-8.4
	c12.6-12.6,79.8-35.7,120.7,2.1c0,0,35.9-30.5,60.9-26.2c0,0-25.2,19.9-27.3,31.5c0,0,41.9-24.4,83.4-7.7c0,0-19.4,2.5-28.8,17.2
	C430.9,38,481.9,65.4,498.8,99.1l-47.6-6.8c15.5,4.9,55.3,35.9,45.8,62.2l-41.6-16c0,0,34,39.7,26.5,68.3
	c-12.8-18.1-31-27.1-31-27.1s9.1,31.2,2.1,29.4c-3.1-5.2-18.9-14.7-18.9-14.7s7.3,23.1,1,24.1c-6.3,1-19.4,8.2-11.5,10.5"/>
<path id="path4638" class="st2" d="M420.4,640.5c-0.8-13.1,13.9-108.5,10.9-147.6c0-21.1,103.9,34.6,145.4-119.8l-28.9-7.7
	c-12.7,44.2-70.4,88.8-108.9,78.5c-51.1-13.7-53.5-10.5-58-18.8c-4.5-8.3-2.1-30.2-35.4-29.4c-29.4,0.7-37,23.2-37.8,50.1
	c-29.4,27.9-88,57.7-134.7,20.8l-23.3,27.1c27.1,31.6,109.2,45.2,151.4,6.8l-2.3,140.1"/>
<path id="path29585" class="st1" d="M316.5,434.1c0,0-28.1-16.6-55,2.8c-26.9,19.3-57,22.6-65.6,6.4s7.5-35.5-2.1-43
	c-9.7-7.5-23.6-9.7-17.2-23.6c6.4-14,17.7-9.8,21.5-23.6c5.4-19.3-23.6-22.6-21.5-38.7c1.2-9.1,15-2.1,20.4-12.9
	c5.4-10.8,12.4-34.9,3.2-43c-8.6-7.5-9.7-48.4,16.1-64.5c6.5-4.1-6.6-5.6-23.8-3.3 M426,228.3c16.9,5,31.9,53.7-0.6,62.9
	c0,0,6.9,13,5.9,15.6c-8.3,27.5-26.8,12.7-26.8,12.7c-5.8,8.8-3.3,52.2-35.6,78.7"/>
<path id="path4640" class="st3" d="M396.7,640.5c0,0,25.6-155.9,3.8-177c0,0-23.3,42.2-95.7,18.8"/>
<path id="path4642" class="st3" d="M304.4,495.9c2-7.4-9.4-27.1,9.4-42.2"/>
<path id="path4644" class="st3" d="M328.1,467.3c0,0-19.8-15.7-17.5-28.5s15.3-34,35.6-35.6c20.3-1.5,35.4,12.8,27.9,43.7"/>
<path id="path4646" class="st4" d="M387.9,541.5c-3.8,1.5-11,10.4-9.2,17.1c3.3,11.7,16.7,5.1,17-3
	C396.2,545,394.8,539.6,387.9,541.5z"/>
<path id="path4648" class="st5" d="M337.2,417.6c-6.8,3-17.5,10.9-10,18.3c4.2,4.2,19.4,13.1,29.6-4.7
	C365.9,415.3,348.6,412.5,337.2,417.6z"/>
<path id="path4650" class="st6" d="M565.4,212.7c-0.6,8.6-62.7,115.1-75.3,129.5c-2.7,2.9-0.8,9.5,4.4,12.3
	c23.6,12.6,113.5,23.1,132.6,19.4c5.2,0.9,8.9-5.8,8-9c-11.4-40.9-9.1-109.8-12.5-135.6c21.8,1.5,57.5-9,62-23.3V169
	c0,0-25.1,24.9-47.7,19.6c53.5-39.9,25.7-85.9,5.3-79.8c-22.9,6.8,21.6,42-35.4,64c12.8-22.2,10.4-45.3,0.1-60.2
	c-4.2-6-17.6-16.6-33.4-16.1c-22.1,0.7-27.2,25.7-13.5,25.7c19.5,0,50.8,43.7,0.2,57.3c-30.8,8.3-9.7-16.5-8.3-21.8
	c5.8-21.7-35.4-10.8-35.4,13.6C516.4,206.8,525.5,206.7,565.4,212.7z"/>
<path id="path4652" class="st7" d="M516.6,323.6l11-21.4c39.2,19,70.4,20.8,88.7,18.4c1.2,21.4,0,23.2,0,23.2
	C560.6,346.2,536.2,335.2,516.6,323.6z"/>
<path id="path4654" class="st8" d="M571.6,193.3c11-4.3,37.3-2.4,42.2,11"/>
<path id="path4670" class="st9" d="M44.4,286.1l-0.5-67c-11-5.5-18.6-23.6,19.7-28.9c47.9-6.6,47,17.6,32.3,25.7v67.6"/>
<path id="path4656" class="st6" d="M131.8,521.8c34.3-31.2,71-79.5,66.1-89.9C193,421.5,130,395.8,114.1,323
	c30-41.6,10.3-55.9-6.7-58.1c-14.1-1.8-33.6,1.2-40.4,16.5c-42.2-4.3-56.3,16.5-44,34.3c0,0-9.8,6.7-9.8,17.7
	c0,13.5,14.1,14.1,11,17.1c0,0-7.3,10.4-2.4,18.4c4.3,11.6,15.7,8,15.7,8s-4.7,19.6,2.7,32.4c6,10.5,9.2,20.2,27.5,21.4
	c8,6.1-8,33.6,47.7,96C121.4,527.9,125.1,526.7,131.8,521.8z"/>
<path id="path4678" class="st10" d="M321.7,428.6c0,0-32.3-14.7-58.4,4.1s-55.3,21.9-63.7,6.3c-8.3-15.7,7.3-34.4-2.1-41.7
	c-9.4-7.3-23-9.4-16.7-23c6.3-13.6,17.1-9.5,20.9-23c5.2-18.8-23-21.9-20.9-37.6c1.2-8.8,14.6-2.1,19.8-12.5
	c5.2-10.4,12.1-33.9,3.1-41.7c-8.3-7.3-9.4-47,15.7-62.6c11.9-7.4-43.8-6.3-65.8,12.5c-11.2,9.6,18.8-66.8,42.8-75.1
	s-49.1,14.6-53.2,19.8c-4.2,5.2,36.5-58.4,64.7-62.6c28-4.2-58.4-4.2-58.4-4.2s36.5-38.6,75.1-42.8c38.6-4.2-54.3-8.3-54.3-8.3
	c12.5-12.5,79.3-35.5,120,2.1c0,0,35.7-30.4,60.5-26.1c0,0-25,19.8-27.1,31.3c0,0,56.4-25,77.2-5.2c0,0-13.6,0-23,14.6
	c55.4-10,101.2,15.7,114.8,41.7l-37.6-1c14.6,7.3,50.1,36.5,40.7,62.6l-31.3-17.7c0,0,19.6,42.8,14.6,61.6
	c-1.3,4.9-29.2-18.8-29.2-18.8s9,31.1,2.1,29.2c-3.1-5.2-18.8-14.6-18.8-14.6s7.3,23,1,24c-6.3,1-16.7,0-11.5,6.3
	c5.2,6.3,25,35.5,15.7,50.1s-13.5,29.2-13.5,29.2c0,28.2-23.1,19.8-23.1,19.8c-6.3,9.4-3.6,48.1-46.4,72.1
	c-12.1,7-5.3,18.5-2.8,25.9s-4.9,16.3-16.1,16.2C329.9,439.4,321.5,427.1,321.7,428.6z"/>
<path id="path4658" class="st7" d="M95.8,483.5l13.4,21.2c39.3-36.2,64.5-77.1,64.5-77.1L158,413.5C146.9,445,95.8,483.5,95.8,483.5
	z"/>
<path id="path4660" class="st8" d="M29.7,348.9c18.1,5.5,34.6-3.9,34.6-3.9"/>
<path id="path4662" class="st8" d="M35.2,316.7c26,4.7,37.8-7.1,42.5-11.8"/>
<path id="path4664" class="st8" d="M69,290.7c0,9.4,6.3,19.7,28.3,12.6"/>
<path id="path4666" class="st8" d="M74,325c0-7.1,1.1-14.1,7.4-19.7"/>
<path id="path4668" class="st11" d="M49.4,376.5c1.6,30.7,3.9,40.1,15,39.3c11-0.8,18.1-18.1,18.9-57.4c0.1-7.1-11.8-14.9-11.8-14.9
	c-7.9,6.3,18,11.6,0.8,28.7C65.3,379.1,49.4,376.5,49.4,376.5z"/>
<path id="path4672" class="st12" d="M51.7,205.7c19.7,6.3,35.4-3.1,35.4-3.1"/>
<path id="path4674" class="st13" d="M58.2,241.4c0.2,8.1-0.4,13.8,4.3,13.6c3.5-0.2,3.5-3.3,3.5-13.3c0-8.7,0.3-16.6-3.5-16.6
	C57.3,225.2,58.1,236.1,58.2,241.4z"/>
<path id="path4676" class="st13" d="M58.2,269c0,2.5,2,3.5,4.2,3.4c2.2-0.1,3.3-1.6,3.1-3.7c-0.2-2-1.2-3.7-3.1-3.7
	S57.9,266,58.2,269z"/>
<path id="path4680" class="st14" d="M185,385.2c12.6,10.9,28.7,13.1,28.7,13.1"/>
<path id="path4683" class="st4" d="M380.5,508.8c3.8,6.1,15.8,0,16.7-6.2c0.8-5.2-2.2-11.2-7.7-11.8
	C383.2,490.3,376.8,502.8,380.5,508.8z"/>
<path id="path4685" class="st4" d="M385.8,598.9c-3.1-0.2-9,5.3-9,12.1c0,5,1.9,10.8,5,11.5c3.1,0.6,8.6-5,9.9-12.7
	C392.9,602.1,389.9,599.3,385.8,598.9z"/>
<path id="path4687" class="st15" d="M199.7,360.5c0,0-4.9,12.2-0.3,13.4c5.3,1.4,17.1,2.1,22.3,5.5c5.3,3.4,11.5,13.3,19.2,13.3
	c7.7,0,19.8-8.1,26-8.1s16.1,5.9,21.4,5.6s30.7-22.6,37.5-23.5s14.2,6.2,22.6,5c8.4-1.2,35.3-33.1,36.2-40.3
	c0.9-7.1,0.9-42.7-0.9-47.1c-1.9-4.3-16.1-18.6-20.1-18s-22,22.3-23.2,27.6s-4,17.6-6.5,18.9c-2.5,1.2-22,20.7-26,20.4
	c-4-0.3-13.3-2.2-17-0.3s-13.6,15.8-19.2,16.1c-5.6,0.3-22.3,3.4-25.7,1.5c-3.4-1.9-34.2-12.5-40.1-13.1
	C199.9,336.9,199.7,360.5,199.7,360.5z"/>
<path id="path4689" class="st16" d="M342.4,290.3c0,0,18.9,18.9,23.2,24.8s13.6,23.5,13.6,23.5"/>
<path id="path4691" class="st16" d="M330,316.3c0,0,14.6,22.9,15.5,26.3c0.9,3.4,9.6,25.1,9.6,25.1"/>
<path id="path4693" class="st16" d="M307.7,332.7l10.8,38.7"/>
<path id="path4695" class="st16" d="M279.3,343.5l5.3,45.8"/>
<path id="path4697" class="st16" d="M254.5,352.2l-4,37.8"/>
<path id="path4699" class="st16" d="M234.1,345.1l-13,33.4"/>
<path id="path7382" class="st0" d="M219.5,196.8c11.9-7.4-43.8-6.3-65.8,12.5c-11.2,9.6,18.8-66.8,42.8-75.1
	c24-8.3-49.1,14.6-53.2,19.8c-4.2,5.2,36.5-58.4,64.7-62.6c28-4.2-58.4-4.2-58.4-4.2s36.5-38.6,75.1-42.8
	c38.6-4.2-54.3-8.3-54.3-8.3c12.5-12.5,79.3-35.5,120,2.1c0,0,35.7-30.4,60.5-26.1c0,0-25,19.8-27.1,31.3c0,0,56.4-25,77.2-5.2
	c0,0-13.6,0-23,14.6c55.4-10,101.2,15.7,114.8,41.7l-37.6-1c14.6,7.3,50.1,36.5,40.7,62.6l-34.9-15.7c0,0,23.2,40.8,18.2,59.5
	c-1.3,4.9-29.2-18.8-29.2-18.8s9,31.1,2.1,29.2c-3.1-5.2-18.8-14.6-18.8-14.6s4.7,22.3-1.6,23.4c-6.3,1-10.5,0.3-5.3,6.6
	c1,1.2-15.4,15.2-28.8,14.6c-6.8-0.3,8.3-54.6-0.5-55.6c-25.6-3-84.5,33.2-108.6,37.3C239.6,230.6,208.9,203.4,219.5,196.8z"/>
<path id="path4703" class="st17" d="M300.9,224.7c12.5-9,39.4-26.9,54.7-28.7c15.2-1.8,27.6,15.8,22.4,41.2
	c-3.3,16.2-43,44.8-69,31.4C283,255.1,289.8,230.8,300.9,224.7z"/>
<path id="path24956" class="st1" d="M202.4,192.9c-14.7,2-38.4,7.6-48.7,16.4c-11.2,9.6,18.8-66.8,42.8-75.1
	c-9.3-1.1-45,17.1-57.3,28.8c0.1-14.2,36.6-69,76.1-72.4c28.3-2.4-65.7-3.4-65.7-3.4c0-13.1,36.5-38.6,75.1-42.8
	c38.6-4.2-54.3-8.3-54.3-8.3c12.5-12.5,79.3-35.5,120,2.1c0,0,35.7-30.4,60.5-26.1c0,0-25,19.8-27.1,31.3c0,0,44.7-23.2,86-6.7
	c0,0-22.3,1.5-31.7,16.1c52.2-12.5,102.9,14.8,119.7,48.3l-47.3-6.8c15.4,4.9,54.9,35.7,45.6,61.8l-38.8-17.4c0,0,31.2,41,23.8,69.4
	c-12.8-17.9-30.9-28-30.9-28s9,32.1,2.1,30.2c-3.1-5.2-17.8-15.6-17.8-15.6s1.3,17.8-4.9,18.8c0,0-1.2,9.6-2.9,19.2"/>
<path id="path4707" class="st18" d="M377.1,260.5c15.2,0.9,24.2,33.1,24.2,42.1s-3.2,26.7-3.2,26.7"/>
<path id="path4711" class="st19" d="M404.9,283.8c0,0,9.9,6.8,16.1-10.6c6.2-17.4-5.4-23.5-11.6-20.8c-6.3,2.7-14.3,4.5-9,14.3
	C405.8,276.6,405.8,287.4,404.9,283.8z"/>
<path id="path4709" class="st12" d="M400.4,290.1c4.5-12.5,3.6-20.6-0.9-24.2c-4.5-3.6,5.4-15.2,12.5-14.3s10.8,9,10.8,9"/>
<path id="path4705" class="st17" d="M206,260.8c34,18.8,53.2,12.6,70.8-11.9c14.5-20.2-4.7-29.9-4.7-29.9l-0.4-0.3
	c-39.6-34.1-51.8-28.6-67.6-1.8S206,260.8,206,260.8z"/>
<path id="path32222" class="st0" d="M339.3,17.6c-18.4,3.9-34.4,15.1-48.6,26.9c-27.5-27.7-72.8-26.1-106-10.6
	c17.4,1.9,36,0.3,52.7,5.9c6.3,7.9-7.5,9.8-12.7,9.8c-24.2,3.7-47.5,15.8-65.3,31.6c18.4,1.1,39.8,1.2,57.7,5.8
	c6.2,8-6.5,8.6-11.7,10.1c-20.3,9.3-36.2,30.2-48.1,46.6c16.3-6.3,32.8-11.5,49.4-16.8c4,11.6-10.1,9.3-15.1,16.2
	c-15.5,15.8-25.7,37.3-33,58.3c19-10.3,42.1-15.9,63.7-12.2c5.6,1.5,11.3-2.5,7.4-0.3c8.7,14.2,28.2,17.3,43.5,18.7
	c34.4,2.5,55.8-8.8,86.9-19.3c12.6-3.8,26.7-11.2,39.9-6.8c7.3,10.3,0.7,24.6,0.6,36.1c0.3,5.1-3.6,14.4-0.4,17.4
	c6.2-1.4,17-23.3,19.2-29c-2.6-9.1,8.6,6.9,13.1,5.5c0.1-9.8-4.6-16.1-7.3-25.5c7.8,4.2,16.8,13.2,22.6,16.5
	c-1.4-10.9-3.6-22.6-6.5-33.3c10.7,8.8,22,17.3,33.9,24.5c-0.7-22.9-14.3-42.4-25.1-62c13.7,6.1,27.8,12.8,41.3,18.4
	c0.9-22.9-19.3-39.6-36.7-51.3c-12.4-5.8-19-10.9-0.7-8.9c7.7-1.2,27,3.5,28.4-0.9c-27.1-31.7-73.4-39-112.9-30
	c4.3-8.8,12.2-17.7,20.3-21.5c-24.5-6.1-49,4.4-71.5,13.3C319,36.6,331.4,25.7,339.3,17.6z"/>
<path id="path4715" class="st20" d="M210.9,183.9c0,0-14.5,3-9.1-1.5s11.4-6.1,15.8-6.1s-9-8.9-14.3-8.1c-5.5,0.9,17.3-5.1,26.9-3.1
	c5.3,1.1-4.5-8.5-10.8-10.3c16.7,3,38.5,7.2,47.5,27.8s11.6,8.1,11.6,8.1s-9.1,23.8-0.8,31.6c5.6,5.3-29.3-26-63.5-29.6
	c-2.4-0.3-5.5-2.6-7.6-2.5C197.8,190.4,212.8,184,210.9,183.9z"/>
<path id="path4717" class="st20" d="M278.4,223.4c20.6,6.3,22.4-6.5,43.9-37c29.1-41.2,73.5-30.7,73.5-30.7l-17.9,7.2
	c0,0,30.9-1.8,35.4,9.4c-4.9,3.1-25.1,2.7-18.8,4.5c6.3,1.8,18.4,10.3,14.8,14.8c-4.5,0-13.4-2.7-13.4-2.7l4.5,12.5
	c0,0-47.3-18.5-107.3,24.5"/>
<path id="path4721" class="st21" d="M307.4,275.3c0,0,16.7,10.1,26.7,3.2"/>
<path id="path4701" class="st22" d="M294.6,224c0,0-47.2,42.2-57.8,59.7c-6.5,10.7-12.9,35.1-11.1,40.5s54.7-30.5,70.8-31.4
	c16.1-0.9,7.5-33-0.5-32c-12,1.6-27.3,9.6-30.9,22.1"/>
<path id="path4719" class="st23" d="M346.6,240.5c0,0-16.9-9.8-4.3-22.5c14.1-14.1,22.1,4.6,16.3,11.2c-3.3,3.7-12,3.1-12-1.2
	s6.2-10.5,7.4-1.5"/>
<path id="path4723" class="st12" d="M223.2,217.9c0,0,0.6,3.1,4.4,2c5.1-1.4,4.4-7.5,1-7.5C225.6,212.4,223.9,213.4,223.2,217.9z"/>
<path id="path4725" class="st24" d="M282.3,172.4c-2.3-14.7-18.6-26.7-24.4-26.7"/>
<path id="path4727" class="st24" d="M288.5,168.5c0.8-13.2-13.9-29.4-16.3-29.8"/>
<path id="path4729" class="st24" d="M295.1,167c-3.9-15.9,8.5-44.5,17-50.3"/>
<path id="path4757" class="st25" d="M385.7,116.1c0,0,15.5,12.5,16.3,25.1c0,0,7.1-25.5-13-35.1"/>
<path id="path4751" class="st26" d="M337.6,89.8c-4.9,10.6-4.2,26.7,13.4,33.4c18.6,7.1,33.8-1.3,38.4-11.7
	c5.4-12.2-2.1-29.7-15-34.3C364.4,73.7,345.2,73.5,337.6,89.8z"/>
<path id="path4731" class="st24" d="M302,166.2c0.4-8.5,15.9-31.4,25.9-35.2"/>
<path id="path4733" class="st24" d="M308.2,166.6c7.7-12.8,28.3-22.8,40.6-20.5"/>
<path id="path4735" class="st27" d="M47.7,167.2c-0.5,4,1.4,9.1,6.8,9.1c6.7,0,10.4-4.6,10.2-9.3c-0.2-3.5-3.8-6.7-8.4-6.7
	C51.5,160.2,48.2,163.4,47.7,167.2z"/>
<path id="path4737" class="st27" d="M81,156.5c-3.9,2-6.2,5.4-4.6,8.5c1.5,3.1,7,5,10.8,1.5C91.1,163.1,87.7,153,81,156.5z"/>
<path id="path4739" class="st27" d="M52.3,134.1c0,8.3,8.1,12.4,13.9,11.6s11.6-4.2,11.6-13.2c0-6.2-7-13.5-15.9-12.8
	C55.1,120.3,52.3,126.7,52.3,134.1z"/>
<path id="path4741" class="st27" d="M88.3,120.5c0.2,5.8,3.1,11.2,9.7,12c5.8,0.7,14.3-3.5,14.3-11.6c0-7.7-7.8-10.5-12.4-11.2
	C92.1,108.5,88.2,116.1,88.3,120.5z"/>
<path id="path4743" class="st27" d="M73.2,96.9c5-0.3,10.5-2.3,10.8-10.1c0.4-7.7-9.7-10.8-12.8-9.3c-3.1,1.5-7.7,6.6-7.4,11.6
	C64.3,94.2,68.1,97.2,73.2,96.9z"/>
<path id="path4745" class="st27" d="M80.2,56.3c3.1,0.4,11.2-1.1,11.2-8.1c0-4.7-4.2-10.1-9.3-10.1c-5,0-9.7,5.4-10.1,10.5
	C71.7,53.5,77.1,57,80.2,56.3z"/>
<path id="path4753" class="st26" d="M244.1,91.1c0.4,14.2,6.7,24.6,23.8,25.5c18.4,0.9,39.7-4.2,40.5-25.9
	c0.7-18.4-12.5-30.5-31.3-29.2C258.3,62.7,244.1,76.1,244.1,91.1z"/>
<path id="path4747" class="st28" d="M275.2,98.2c12.4-0.3,17.7-5.5,17.7-12.4c0-6.4-6.2-9.7-15.4-9.7c-9.8-0.1-16.2,4.4-16.8,12.1
	C260.2,95.8,267.8,98.4,275.2,98.2z"/>
<path id="path4755" class="st26" d="M309.2,93.6c2.9-1.3,19.6-2.5,26.3,5.8l4.6-15.5c-14.2-9.2-32.6-3.8-32.6-3.8L309.2,93.6z"/>
<path id="path4749" class="st28" d="M353.8,92.9c-4.3,7.5,4.4,12.4,10.3,13c4.8,0.5,12.1,0.6,13.9-5.3c2-6.6-6.5-10.7-11.5-11.8
	C359.9,87.3,355.6,89.7,353.8,92.9z"/>
<path id="path4759" class="st29" d="M180.2,506.8c2.6,1.3,13.9-20.5,11.3-22.2c0,0-10.4-4.2-16.4-9.8l-16.4,18.9
	C158.7,493.7,166.2,502.1,180.2,506.8z"/>
<path id="path4761" class="st29" d="M550.8,372.4c-3.6,12.9-8.8,19.5-8.8,19.5c-0.9,2.2,20.8,5.6,21.6,2.6c0,0,4.7-9.3,5.5-17.1
	C569.1,377.4,552.9,373.1,550.8,372.4z"/>
<path id="path9130" class="st30" d="M309.1,435.7c0,0-19.7-21.8-45.8-3s-55.3,21.9-63.7,6.3c-8.3-15.7,9.6-38.1-2.1-40.2
	c-10.2-1.8-23-11-16.7-24.5c6.3-13.6,17.1-9.5,20.9-23c5.2-18.8-23-21.9-20.9-37.6c1.2-8.8,14.6-2.1,19.8-12.5
	c5.2-10.4,12.1-33.9,3.1-41.7c-8.3-7.3-17.4-47,7.7-62.6c6.3-3.9,1.6-4.8-15.1-2.5 M423,229.9c16.4,4.9,31,52.5-0.6,61.4l5.7,15.1
	c-7.6,26-26,12.3-26,12.3c-5.8,8.7-5.1,53.6-37.9,78.8"/>
<path id="path4713" class="st12" d="M394.1,230c0,0,0,9.9-3.6,15.2s17.8-17.2,34.2-10.9"/>
<path id="path15243" class="st29" d="M180.2,506.8c2.6,1.3,13.9-20.5,11.3-22.2c0,0-10.4-4.2-16.4-9.8l-16.4,18.9
	C158.7,493.7,166.2,502.1,180.2,506.8z"/>
<path id="path21364" class="st5" d="M423,639.7c0,0,24.8-106.1,16.6-149.4"/>
<path id="path21366" class="st31" d="M297.7,639.8c3.2-76.3-8.5-82-5.8-132.8"/>
<path id="path23994" class="st3" d="M360.4,395.3c-12.1,10-20.8,3.6-3.1,31.3"/>
<path id="path23996" class="st3" d="M327.9,437c-6.1-8.1-8.6-16.1-39.1-15.4"/>
<path id="path32210" class="st5" d="M192,478c0,0,52,14,94-14"/>
<path id="path32212" class="st5" d="M544,364c0,0-24,54-60,70"/>
<path id="path32214" class="st5" d="M194,306c0,0,20-40,10-50s-14-46,0-60"/>
<path id="path32216" class="st32" d="M432.9,236l2-24.6"/>
<path id="path32218" class="st5" d="M140,165.6c0,0,26.9-17.2,42.9-25.2"/>
<path id="path32220" class="st5" d="M391,44c0,0,48-3,73,21"/>
</svg>
